# AST/ASF file generated using VICON BodyLanguage
# -----------------------------------------------
:version 1.10
:name VICON
:units
  mass 1.0
  length 0.45
  angle deg
:documentation
   .ast/.asf automatically generated from VICON data using
   VICON BodyBuilder and BodyLanguage model FoxedUp or BRILLIANT.MOD
:root
   order TX TY TZ RX RY RZ
   axis XYZ
   position 0 0 0  
   orientation 0 0 0 
:bonedata
  begin
     id 1 
     name lhipjoint
     direction 0.64773 -0.699417 0.302095 
     length 2.48597 
     axis 0 0 0  XYZ
  end
  begin
     id 2 
     name lfemur
     direction 0.34202 -0.939693 0  
     length 6.71947  
     axis 0 0 20  XYZ
    dof rx ry rz
    limits (-160.0 20.0)
           (-70.0 70.0)
           (-60.0 70.0)
  end
  begin
     id 3 
     name ltibia
     direction 0.34202 -0.939693 0   
     length 8.08777   
     axis 0 0 20   XYZ
    dof rx
    limits (-10.0 170.0)
  end
  begin
     id 4 
     name lfoot
     direction 0.0808503 -0.222134 0.971658   
     length 2.08264   
     axis -90 7.62852e-016 20   XYZ
    dof rx rz
    limits (-45.0 90.0)
           (-70.0 20.0)
  end
  begin
     id 5 
     name ltoes
     direction 1.53502e-011 -4.22007e-011 1   
     length 1.04662   
     axis -90 7.62852e-016 20   XYZ
    dof rx
    limits (-90.0 20.0)
  end
  begin
     id 6 
     name rhipjoint
     direction -0.610924 -0.726792 0.313919   
     length 2.39233  
     axis 0 0 0  XYZ 
  end
  begin
     id 7 
     name rfemur
     direction -0.34202 -0.939693 0   
     length 6.96955   
     axis 0 0 -20   XYZ
    dof rx ry rz
    limits (-160.0 20.0)
           (-70.0 70.0)
           (-70.0 60.0)
  end
  begin
     id 8 
     name rtibia
     direction -0.34202 -0.939693 0   
     length 8.19584   
     axis 0 0 -20   XYZ
    dof rx
    limits (-10.0 170.0)
 end
 begin
     id 9 
     name rfoot
     direction -0.077777 -0.213691 0.9738   
     length 2.07539  
     axis -90 -7.62852e-016 -20   XYZ
    dof rx rz
    limits (-45.0 90.0)
           (-20.0 70.0)
  end
  begin
     id 10 
     name rtoes
     direction -1.53558e-011 -4.22006e-011 1   
     length 1.04381   
     axis -90 -7.62852e-016 -20   XYZ
    dof rx
    limits (-90.0 20.0)
  end
  begin
     id 11 
     name lowerback
     direction -0.00971646 0.996074 0.0879841   
     length 1.67643   
     axis 0 0 0   XYZ
    dof rx ry rz
    limits (-20.0 45.0)
           (-30.0 30.0)
           (-30.0 30.0)
  end
  begin
     id 12 
     name upperback
     direction 0.0127391 0.991676 0.128127   
     length 1.63741   
     axis 0 0 0   XYZ
    dof rx ry rz
    limits (-20.0 45.0)
           (-30.0 30.0)
           (-30.0 30.0)
  end
  begin
     id 13 
     name thorax
     direction 0.0167583 0.996049 0.0872067   
     length 1.65931   
     axis 0 0 0   XYZ
    dof rx ry rz
    limits (-20.0 45.0)
           (-30.0 30.0)
           (-30.0 30.0)
  end
  begin
     id 14 
     name lowerneck
     direction -0.0317829 0.998312 0.0486079   
     length 1.79021   
     axis 0 0 0   XYZ
    dof rx ry rz
    limits (-20.0 45.0)
           (-30.0 30.0)
           (-30.0 30.0)
  end
  begin
     id 15 
     name upperneck
     direction 0.0896851 0.972452 -0.215159   
     length 1.78797   
     axis 0 0 0   XYZ
    dof rx ry rz
    limits (-20.0 45.0)
           (-30.0 30.0)
           (-30.0 30.0)
  end
  begin
     id 16
     name head
     direction 0.0310949 0.996503 -0.0775582  
     length 1.81549  
     axis 0 0 0   XYZ
    dof rx ry rz
    limits (-20.0 45.0)
           (-30.0 30.0)
           (-30.0 30.0)
  end
  begin
     id 17 
     name lclavicle
     direction 0.853638 0.502051 -0.138733  
     length 3.31627  
     axis 0 0 0   XYZ
    dof ry rz
    limits (-20.0 10.0)
           (0.0 20.0)
  end
  begin
     id 18 
     name lhumerus
     direction 1 -4.48962e-011 -1.41788e-018   
     length 5.54893   
     axis 180 -30 -90   XYZ
    dof rx ry rz
    limits (-60.0 90.0)
           (-90.0 90.0)
           (-90.0 90.0)
  end
  begin
     id 19
     name lradius
     direction 1 -4.48962e-011 -4.95754e-027   
     length 3.02898   
     axis 180 -30 -90   XYZ
    dof rx
    limits (-10.0 170.0)
  end
  begin
     id 20
     name lwrist
     direction 1 -4.48952e-011 -1.03764e-026   
     length 1.51449   
     axis 9.09556e-015 90 90   XYZ
    dof ry
    limits (-180.0 0.0)
 end
  begin
     id 21 
     name lhand
     direction 1 -4.4902e-011 -2.07528e-026   
     length 0.640951   
     axis 1.3242e-014 90 90   XYZ
    dof rx rz
    limits (-90.0 90.0)
           (-45.0 45.0)
  end
  begin
     id 22 
     name lfingers
     direction 1 -4.49014e-011 -4.15056e-026   
     length 0.516751   
     axis 2.64841e-014 90 90   XYZ
    dof rx
    limits (0.0 90.0)
  end
  begin
     id 23
     name lthumb
     direction 0.707107 -6.35008e-011 0.707107   
     length 0.741954   
     axis -90 45 2.85299e-015   XYZ
    dof rx rz
    limits (-45.0 45.0)
           (-45.0 45.0)
  end
  begin
     id 24 
     name rclavicle
     direction -0.888531 0.455324 -0.0565039   
     length 3.20126  
     axis 0 0 0   XYZ 
    dof ry rz
    limits (-10.0 20.0)
           (-20.0 0.0)
  end
  begin
     id 25 
     name rhumerus
     direction -1 -4.48946e-011 -8.98298e-028  
     length 5.3519   
     axis 180 30 90   XYZ
    dof rx ry rz
    limits (-90.0 60.0)
           (-90.0 90.0)
           (-90.0 90.0)
  end
  begin
     id 26 
     name rradius
     direction -1 -4.4899e-011 -3.18779e-027   
     length 3.02531   
     axis 180 30 90   XYZ
    dof rx
    limits (-10.0 170.0)
  end
  begin
     id 27 
     name rwrist
     direction -1 -4.4897e-011 -1.03764e-026   
     length 1.51266   
     axis 9.09556e-015 -90 -90   XYZ
    dof ry
    limits (-180.0 0.0)
  end
  begin
     id 28
     name rhand
     direction -1 -4.48941e-011 -2.07528e-026   
     length 0.78389   
     axis 1.3242e-014 -90 -90   XYZ
    dof rx rz
    limits (-90.0 90.0)
           (-45.0 45.0)
  end
  begin
     id 29
     name rfingers
     direction -1 -4.49012e-011 -4.15056e-026   
     length 0.631992   
     axis 2.64841e-014 -90 -90   XYZ
    dof rx
    limits (0.0 90.0)
  end
  begin
     id 30
     name rthumb
     direction -0.707107 -6.3496e-011 0.707107   
     length 0.907418   
     axis -90 -45 -2.85299e-015   XYZ
    dof rx rz
    limits (-45.0 45.0)
           (-45.0 45.0)
  end
:hierarchy
  begin
    root lhipjoint rhipjoint lowerback
    lhipjoint lfemur
    lfemur ltibia
    ltibia lfoot
    lfoot ltoes
    rhipjoint rfemur
    rfemur rtibia
    rtibia rfoot
    rfoot rtoes
    lowerback upperback
    upperback thorax
    thorax lowerneck lclavicle rclavicle
    lowerneck upperneck
    upperneck head
    lclavicle lhumerus
    lhumerus lradius
    lradius lwrist
    lwrist lhand lthumb
    lhand lfingers
    rclavicle rhumerus
    rhumerus rradius
    rradius rwrist
    rwrist rhand rthumb
    rhand rfingers
  end

#!OML:ASF E:\Style3\Style3.ASF
:FULLY-SPECIFIED
:DEGREES
2389
root -1.26113 17.5936 -0.540593 -849.925 60.9165 -892.396
lowerback 21.5271 -2.70166 -4.98516
upperback 11.5826 -2.35726 -10.2846
thorax 0.521829 -0.191505 -7.86802
lowerneck -9.19092 -9.73788 -11.5028
upperneck 3.7945 -14.0985 28.3231
head 5.83576 -5.87687 9.82044
rclavicle -3.81667e-014 7.63333e-014
rhumerus 99.0992 -2.43576 -59.4867
rradius 18.7011
rwrist 83.1523
rhand -27.5382 17.6986
rfingers 7.12502
rthumb -0.939932 -12.2791
lclavicle -1.27222e-014 -1.11319e-014
lhumerus 52.6144 -34.6249 50.6026
lradius 124.14
lwrist 83.0001
lhand -29.1193 34.7858
lfingers 7.12502
lthumb -2.46694 64.7513
rfemur -42.6964 10.8162 6.37387
rtibia 12.0644
rfoot -25.9642 -37.6234
rtoes 10.5156
lfemur -63.1566 -10.2942 -5.11456
ltibia 23.6491
lfoot -2.10319 9.38957
ltoes -26.2606
2390
root -1.26503 17.5938 -0.530849 -849.908 60.9743 -892.364
lowerback 21.5271 -2.70166 -4.98516
upperback 11.5826 -2.35726 -10.2846
thorax 0.521829 -0.191505 -7.86802
lowerneck -9.19092 -9.73788 -11.5028
upperneck 3.7945 -14.0985 28.3231
head 5.83576 -5.87687 9.82044
rclavicle -3.81667e-014 7.63333e-014
rhumerus 99.0992 -2.43576 -59.4867
rradius 18.7011
rwrist 83.1523
rhand -27.5382 17.6986
rfingers 7.12502
rthumb -0.939932 -12.2791
lclavicle -1.27222e-014 -1.11319e-014
lhumerus 52.6144 -34.6249 50.6026
lradius 124.14
lwrist 83.0001
lhand -29.1193 34.7858
lfingers 7.12502
lthumb -2.46694 64.7513
rfemur -42.6925 10.8618 6.35994
rtibia 11.9907
rfoot -25.8847 -37.6234
rtoes 10.386
lfemur -63.155 -10.3102 -5.03123
ltibia 23.6342
lfoot -2.0707 9.49435
ltoes -26.4402
2391
root -1.26856 17.5943 -0.518956 -849.832 61.0745 -892.279
lowerback 21.5271 -2.70166 -4.98516
upperback 11.5826 -2.35726 -10.2846
thorax 0.521829 -0.191505 -7.86802
lowerneck -9.19092 -9.73788 -11.5028
upperneck 3.7945 -14.0985 28.3231
head 5.83576 -5.87687 9.82044
rclavicle -3.81667e-014 7.63333e-014
rhumerus 99.0992 -2.43576 -59.4867
rradius 18.7011
rwrist 83.1523
rhand -27.5382 17.6986
rfingers 7.12502
rthumb -0.939932 -12.2791
lclavicle -1.27222e-014 -1.11319e-014
lhumerus 52.6144 -34.6249 50.6026
lradius 124.14
lwrist 83.0001
lhand -29.1193 34.7858
lfingers 7.12502
lthumb -2.46694 64.7513
rfemur -42.7326 10.9468 6.32441
rtibia 11.9149
rfoot -25.7381 -37.685
rtoes 10.213
lfemur -63.161 -10.2869 -4.93505
ltibia 23.6263
lfoot -2.04057 9.61779
ltoes -26.3972
2392
root -1.27517 17.5942 -0.510656 -849.748 61.1412 -892.197
lowerback 21.5271 -2.70166 -4.98516
upperback 11.5826 -2.35726 -10.2846
thorax 0.521829 -0.191505 -7.86802
lowerneck -9.19092 -9.73788 -11.5028
upperneck 3.7945 -14.0985 28.3231
head 5.83576 -5.87687 9.82044
rclavicle -3.81667e-014 7.63333e-014
rhumerus 99.0992 -2.43576 -59.4867
rradius 18.7011
rwrist 83.1523
rhand -27.5382 17.6986
rfingers 7.12502
rthumb -0.939932 -12.2791
lclavicle -1.27222e-014 -1.11319e-014
lhumerus 52.6144 -34.6249 50.6026
lradius 124.14
lwrist 83.0001
lhand -29.1193 34.7858
lfingers 7.12502
lthumb -2.46694 64.7513
rfemur -42.7992 10.9955 6.30394
rtibia 11.8558
rfoot -25.2155 -37.9262
rtoes 9.28798
lfemur -63.184 -10.2459 -4.89111
ltibia 23.6229
lfoot -2.00467 9.69296
ltoes -26.3222
2393
root -1.28488 17.5923 -0.503715 -849.698 61.1192 -892.156
lowerback 21.5271 -2.70166 -4.98516
upperback 11.5826 -2.35726 -10.2846
thorax 0.521829 -0.191505 -7.86802
lowerneck -9.19092 -9.73788 -11.5028
upperneck 3.7945 -14.0985 28.3231
head 5.83576 -5.87687 9.82044
rclavicle -3.81667e-014 7.63333e-014
rhumerus 99.0992 -2.43576 -59.4867
rradius 18.7011
rwrist 83.1523
rhand -27.5382 17.6986
rfingers 7.12502
rthumb -0.939932 -12.2791
lclavicle -1.27222e-014 -1.11319e-014
lhumerus 52.6144 -34.6249 50.6026
lradius 124.14
lwrist 83.0001
lhand -29.1193 34.7858
lfingers 7.12502
lthumb -2.46694 64.7513
rfemur -42.8677 10.9757 6.33902
rtibia 11.8676
rfoot -24.9596 -38.015
rtoes 8.71828
lfemur -63.2392 -10.2575 -4.80628
ltibia 23.6058
lfoot -1.93809 9.72595
ltoes -26.3007
